<svg width="192" height="64" viewBox="0 0 192 64" fill="none" xmlns="http://www.w3.org/2000/svg">
<g clip-path="url(#clip0_15_46093)">
<path fill-rule="evenodd" clip-rule="evenodd" d="M56.2286 26.5143C56.2286 27.6775 56.1491 28.8232 55.9951 29.9469L56 29.9429C53.44 48.96 36.2667 60.4191 28.1143 63.0857L28.1143 53.0286C12.5872 53.0286 0 41.1577 0 26.5143C0 11.8709 12.5872 0 28.1143 0C43.6414 0 56.2286 11.8709 56.2286 26.5143ZM12.1144 19.4286H30.6286C32.6484 19.4286 34.2858 21.0659 34.2858 23.0857V24.2286C34.2858 27.2583 36.7418 29.7143 39.7715 29.7143H40.9143C41.9242 29.7143 42.7429 30.533 42.7429 31.5429V35.6572H45.4858V31.5429C45.4858 29.0181 43.4391 26.9714 40.9143 26.9714H39.7715C38.2567 26.9714 37.0286 25.7434 37.0286 24.2286V23.0857C37.0286 19.5511 34.1633 16.6857 30.6286 16.6857H11.2001L12.1144 19.4286ZM14.8572 25.1429H26.5144V27.8857H15.7715L14.8572 25.1429ZM26.5143 33.3714H18.0572L18.9715 36.1143H26.5143V33.3714ZM37.4856 36.3429C37.4856 37.984 36.1553 39.3143 34.5142 39.3143C32.8731 39.3143 31.5428 37.984 31.5428 36.3429C31.5428 34.7018 32.8731 33.3714 34.5142 33.3714C36.1553 33.3714 37.4856 34.7018 37.4856 36.3429ZM79.9999 12.3429H75.4284V31.0857L75.4657 31.0335C75.441 31.3524 75.4284 31.6748 75.4284 32C75.4284 38.8168 80.9545 44.3429 87.7713 44.3429C94.5881 44.3429 100.114 38.8168 100.114 32C100.114 25.1833 94.5881 19.6572 87.7713 19.6572C84.826 19.6572 82.1216 20.6888 79.9999 22.4104V12.3429ZM95.5427 32C95.5427 36.2921 92.0633 39.7715 87.7713 39.7715C83.4792 39.7715 79.9998 36.2921 79.9998 32C79.9998 27.708 83.4792 24.2286 87.7713 24.2286C92.0633 24.2286 95.5427 27.708 95.5427 32ZM192 32C192 38.8168 186.474 44.3428 179.657 44.3428C172.84 44.3428 167.314 38.8168 167.314 32C167.314 25.1832 172.84 19.6572 179.657 19.6572C186.474 19.6572 192 25.1832 192 32ZM187.429 32C187.429 36.2921 183.949 39.7715 179.657 39.7715C175.365 39.7715 171.886 36.2921 171.886 32C171.886 27.708 175.365 24.2286 179.657 24.2286C183.949 24.2286 187.429 27.708 187.429 32ZM143.086 21.0286H147.657L154.743 37.9429L161.6 21.0286H166.4L156.8 43.8857H152.457L143.086 21.0286ZM129.371 44.3428C132.317 44.3428 135.021 43.3112 137.143 41.5897V43.8857H141.714V32.9143H141.681C141.703 32.6124 141.714 32.3075 141.714 32C141.714 25.1832 136.188 19.6572 129.371 19.6572C122.555 19.6572 117.029 25.1832 117.029 32C117.029 38.8168 122.555 44.3428 129.371 44.3428ZM129.371 39.7715C133.663 39.7715 137.143 36.2921 137.143 32C137.143 27.708 133.663 24.2286 129.371 24.2286C125.079 24.2286 121.6 27.708 121.6 32C121.6 36.2921 125.079 39.7715 129.371 39.7715ZM103.314 43.8857L103.314 21.0286H106.514L106.971 22.4L107.657 23.7714C108.571 21.5771 111.085 21.0286 112.228 21.0286H116.114V25.6H111.314C108.937 25.6 108.038 28.0381 107.885 29.2571V43.8857H103.314Z" fill="black"/>
</g>
<defs>
<clipPath id="clip0_15_46093">
<rect width="192" height="63.0857" fill="white"/>
</clipPath>
</defs>
</svg>
